<svg xmlns="http://www.w3.org/2000/svg" viewBox="0 0 16 16" width="16" height="16" shape-rendering="crispEdges">
  <!-- Pixel art <> brackets - neon orange -->
  <!-- Left bracket < -->
  <rect x="5" y="3" width="1" height="1" fill="#ff8c00"/>
  <rect x="4" y="4" width="1" height="1" fill="#ffb347"/>
  <rect x="3" y="5" width="1" height="1" fill="#ffb347"/>
  <rect x="2" y="6" width="1" height="1" fill="#ffd699"/>
  <rect x="2" y="7" width="1" height="1" fill="#ffd699"/>
  <rect x="3" y="8" width="1" height="1" fill="#ffb347"/>
  <rect x="4" y="9" width="1" height="1" fill="#ffb347"/>
  <rect x="5" y="10" width="1" height="1" fill="#ff8c00"/>

  <!-- Right bracket > -->
  <rect x="10" y="3" width="1" height="1" fill="#ff8c00"/>
  <rect x="11" y="4" width="1" height="1" fill="#ffb347"/>
  <rect x="12" y="5" width="1" height="1" fill="#ffb347"/>
  <rect x="13" y="6" width="1" height="1" fill="#ffd699"/>
  <rect x="13" y="7" width="1" height="1" fill="#ffd699"/>
  <rect x="12" y="8" width="1" height="1" fill="#ffb347"/>
  <rect x="11" y="9" width="1" height="1" fill="#ffb347"/>
  <rect x="10" y="10" width="1" height="1" fill="#ff8c00"/>

  <!-- Subtle glow accents -->
  <rect x="1" y="7" width="1" height="1" fill="#ff8c00" opacity="0.2"/>
  <rect x="14" y="7" width="1" height="1" fill="#ff8c00" opacity="0.2"/>
</svg>
